<?xml version="1.0" encoding="utf-8"?>
<svg version="1.1" id="Layer_1" xmlns="http://www.w3.org/2000/svg" xmlns:xlink="http://www.w3.org/1999/xlink" x="0px" y="0px"
	 viewBox="0 0 774 297" enable-background="new 0 0 774 297" xml:space="preserve" shape-rendering="optimizeQuality">
<path stroke="white" fill="white" d="M612,103.7l-35.2,93l-35.1-93h14.9l20.2,54.5l20.3-54.5H612z"/>
<path stroke="white" fill="white" d="M426.8,92.2h-32.5l-4,10.7h-14.9l35.1-91.5l35.2,91.5h-14.9L426.8,92.2z M399.3,78.8h22.4l-11.2-32.1L399.3,78.8z"/>
<path stroke="white" fill="white" d="M146.8,184.8h-32.5l-4,10.7H95.5l35.1-93.3l35.2,93.3h-14.9L146.8,184.8z M119.3,171.5h22.4l-11.2-32.1L119.3,171.5z"/>
<path stroke="white" fill="white" d="M501.5,278.3H469l-4,10.7h-14.9l35.1-93.3l35.2,93.3h-14.9L501.5,278.3z M474,264.9h22.4l-11.2-32.1L474,264.9z"/>
<path stroke="white" fill="white" d="M481.6,64.3h-14.3v38.5h-13.7V10.5h30.8c0,0,29.1,0,29.1,26.9c0,14.9-9.5,21.5-17.8,24.6l18.9,40.9h-15.3L481.6,64.3z
	 M467.3,50.8h17.1c0,0,15.4,0,15.4-13.4c0-13.5-15.4-13.2-15.4-13.2h-17.1V50.8z"/>
<path stroke="white" fill="white" d="M350,250.3h-14.3v38.5H322v-92.4h30.8c0,0,29.1,0,29.1,26.9c0,14.9-9.5,21.5-17.8,24.6l18.9,40.9h-15.3L350,250.3z
	 M335.7,236.7h17.1c0,0,15.4,0,15.4-13.4c0-13.5-15.4-13.2-15.4-13.2h-17.1V236.7z"/>
<path stroke="white" fill="white" d="M535.3,24.1v25.7h35.8v13.6h-35.8v25.7h41.8v13.7h-55.5V10.5h55.5v13.7H535.3z"/>
<path stroke="white" fill="white" d="M350,117.3V143h35.8v13.6H350v25.7h41.8V196h-55.5v-92.4h55.5v13.7H350z"/>
<path stroke="white" fill="white" d="M402.7,210.3v25.7h35.8v13.6h-35.8v25.7h41.8V289H389v-92.4h55.5v13.7H402.7z"/>
<path stroke="white" fill="white" d="M631.2,117.1v25.7H667v13.6h-35.8v25.7H673v13.7h-55.5v-92.4H673v13.7H631.2z"/>
<path stroke="white" fill="white" d="M308.7,24.1v25.7h35.8v13.6h-35.8v25.7h41.8v13.7H295V10.5h55.5v13.7H308.7z"/>
<path stroke="white" fill="white" d="M248.8,174.2l10.8,9.2c-8.3,8.3-19.8,13.5-32.6,13.5c-25.5,0-46.3-18.5-46.3-47.5c0-27.9,19.3-47.5,46.3-47.5
	c12.8,0,24.3,5.1,32.6,13.6l-10.8,9.1c-5.5-5.5-13.3-9-21.8-9c-19,0-32.4,15.2-32.4,33.8c0,19.8,15.4,33.8,32.4,33.8
	C235.5,183.2,243.2,179.7,248.8,174.2z"/>
<path stroke="white" fill="white" d="M513.3,115.9H493v80h-13.6v-80h-20.3v-12.4h54.1V115.9z"/>
<path stroke="white" fill="white" d="M521.6,103.5h14.5v92h-14.5V103.5z"/>
<path stroke="white" fill="white" d="M456.2,195.8h12.4l-35.1-93l-35.2,93h10.6H456.2z M448.3,181.2h-29.6l14.9-39.9L448.3,181.2z"/>
<polygon stroke="white" fill="white" points="276.3,10.6 256,65.1 243.2,30.7 235.8,10.6 235.8,10.6 228.4,30.6 215.5,65.1 195.3,10.6 180.4,10.6 215.5,103.6 
	235.8,50.7 256,103.6 291.2,10.6 "/>
<path stroke="white" fill="white" d="M239.5,262.3c0,25.3-24.1,26.5-30.3,26.5h-29v-92.3h29c0,0,29-0.8,29,25.9c0,12.1-5.8,18.3-13.7,20.3
	C241.9,246.3,239.5,262.3,239.5,262.3z M193.7,235.8h15.4c0,0,15.3-0.1,15.3-12.4c0-14.2-15.3-13.4-15.3-13.4h-15.4V235.8z
	 M225.8,261.9c0-13.3-16.6-12.4-16.6-12.4h-15.4v25.7h15.4C215.6,275.3,225.8,273,225.8,261.9z"/>
<path stroke="white" fill="white" d="M247.5,259.5v-62.8h13.7v64.6c0.8,10.7,9.4,15.4,19.1,15.4c9.6,0,19.3-5.1,19.3-15.4v-64.6h13.7v62.8
	c0,19.7-13.3,30.9-33,30.9C261.3,290.4,247.5,278.6,247.5,259.5z"/>
<path stroke="white" fill="white" d="M521.7,259.5v-62.8h13.7v64.6c0.8,10.7,9.4,15.4,19.1,15.4c9.6,0,19.3-5.1,19.3-15.4v-64.6h13.7v62.8
	c0,19.7-13.3,30.9-33,30.9C535.5,290.4,521.7,278.6,521.7,259.5z"/>
<path stroke="white" fill="white" d="M329.4,196l-23.2-39.9c1.3-0.3,2.4-0.6,3.2-1c8.3-3,17.8-9.6,17.8-24.6c0-26.9-29.1-26.9-29.1-26.9h-30.8v13.6h0.1
	l15.6,26.7H281v0h-13.7V196H281v-38.5h9.8l22.4,38.5H329.4z M313.5,130.5c0,11.3-11.1,13.1-14.5,13.3l-15.5-26.6h14.5
	C298.1,117.3,313.5,117.1,313.5,130.5z"/>
<line fill="none" stroke="white" stroke-miterlimit="10" x1="67" y1="10.3" x2="688" y2="10.3"/>
<line fill="none" stroke="white" stroke-miterlimit="10" x1="67" y1="289.3" x2="688" y2="289.3"/>
<line fill="none" stroke="white" stroke-miterlimit="10" x1="20" y1="102.8" x2="731" y2="102.8"/>
<line fill="none" stroke="white" stroke-miterlimit="10" x1="37.3" y1="195.8" x2="713.7" y2="195.8"/>
</svg>
